<?xml version="1.0" encoding="utf-8" standalone="no"?>
<!DOCTYPE svg PUBLIC "-//W3C//DTD SVG 1.1//EN"
  "http://www.w3.org/Graphics/SVG/1.1/DTD/svg11.dtd">
<!-- Created with matplotlib (https://matplotlib.org/) -->
<svg height="251.070472pt" version="1.1" viewBox="0 0 362.5625 251.070472" width="362.5625pt" xmlns="http://www.w3.org/2000/svg" xmlns:xlink="http://www.w3.org/1999/xlink">
 <defs>
  <style type="text/css">
*{stroke-linecap:butt;stroke-linejoin:round;}
  </style>
 </defs>
 <g id="figure_1">
  <g id="patch_1">
   <path d="M 0 251.070472 
L 362.5625 251.070472 
L 362.5625 0 
L 0 0 
z
" style="fill:none;"/>
  </g>
  <g id="axes_1">
   <g id="patch_2">
    <path d="M 20.5625 227.192347 
L 355.3625 227.192347 
L 355.3625 9.752347 
L 20.5625 9.752347 
z
" style="fill:#ffffff;"/>
   </g>
   <g id="patch_3">
    <path clip-path="url(#pd3e6827b3f)" d="M 214.552154 227.192347 
L 223.2384 227.192347 
L 223.2384 20.106633 
L 214.552154 20.106633 
z
" style="fill:#1f77b4;opacity:0.4;"/>
   </g>
   <g id="patch_4">
    <path clip-path="url(#pd3e6827b3f)" d="M 223.2384 227.192347 
L 231.924647 227.192347 
L 231.924647 155.983493 
L 223.2384 155.983493 
z
" style="fill:#1f77b4;opacity:0.4;"/>
   </g>
   <g id="patch_5">
    <path clip-path="url(#pd3e6827b3f)" d="M 231.924647 227.192347 
L 240.610894 227.192347 
L 240.610894 194.117871 
L 231.924647 194.117871 
z
" style="fill:#1f77b4;opacity:0.4;"/>
   </g>
   <g id="patch_6">
    <path clip-path="url(#pd3e6827b3f)" d="M 240.610894 227.192347 
L 249.297141 227.192347 
L 249.297141 197.450001 
L 240.610894 197.450001 
z
" style="fill:#1f77b4;opacity:0.4;"/>
   </g>
   <g id="patch_7">
    <path clip-path="url(#pd3e6827b3f)" d="M 249.297141 227.192347 
L 257.983387 227.192347 
L 257.983387 191.032565 
L 249.297141 191.032565 
z
" style="fill:#1f77b4;opacity:0.4;"/>
   </g>
   <g id="patch_8">
    <path clip-path="url(#pd3e6827b3f)" d="M 257.983387 227.192347 
L 266.669634 227.192347 
L 266.669634 192.019863 
L 257.983387 192.019863 
z
" style="fill:#1f77b4;opacity:0.4;"/>
   </g>
   <g id="patch_9">
    <path clip-path="url(#pd3e6827b3f)" d="M 266.669634 227.192347 
L 275.355881 227.192347 
L 275.355881 191.649627 
L 266.669634 191.649627 
z
" style="fill:#1f77b4;opacity:0.4;"/>
   </g>
   <g id="patch_10">
    <path clip-path="url(#pd3e6827b3f)" d="M 275.355881 227.192347 
L 284.042127 227.192347 
L 284.042127 186.466313 
L 275.355881 186.466313 
z
" style="fill:#1f77b4;opacity:0.4;"/>
   </g>
   <g id="patch_11">
    <path clip-path="url(#pd3e6827b3f)" d="M 284.042127 227.192347 
L 292.728374 227.192347 
L 292.728374 180.048877 
L 284.042127 180.048877 
z
" style="fill:#1f77b4;opacity:0.4;"/>
   </g>
   <g id="patch_12">
    <path clip-path="url(#pd3e6827b3f)" d="M 292.728374 227.192347 
L 301.414621 227.192347 
L 301.414621 166.226708 
L 292.728374 166.226708 
z
" style="fill:#1f77b4;opacity:0.4;"/>
   </g>
   <g id="patch_13">
    <path clip-path="url(#pd3e6827b3f)" d="M 301.414621 227.192347 
L 310.100868 227.192347 
L 310.100868 142.161324 
L 301.414621 142.161324 
z
" style="fill:#1f77b4;opacity:0.4;"/>
   </g>
   <g id="patch_14">
    <path clip-path="url(#pd3e6827b3f)" d="M 310.100868 227.192347 
L 318.787114 227.192347 
L 318.787114 94.524205 
L 310.100868 94.524205 
z
" style="fill:#1f77b4;opacity:0.4;"/>
   </g>
   <g id="patch_15">
    <path clip-path="url(#pd3e6827b3f)" d="M 57.137886 227.192347 
L 65.824132 227.192347 
L 65.824132 94.524205 
L 57.137886 94.524205 
z
" style="fill:#ff7f0e;opacity:0.4;"/>
   </g>
   <g id="patch_16">
    <path clip-path="url(#pd3e6827b3f)" d="M 65.824132 227.192347 
L 74.510379 227.192347 
L 74.510379 142.161324 
L 65.824132 142.161324 
z
" style="fill:#ff7f0e;opacity:0.4;"/>
   </g>
   <g id="patch_17">
    <path clip-path="url(#pd3e6827b3f)" d="M 74.510379 227.192347 
L 83.196626 227.192347 
L 83.196626 166.226708 
L 74.510379 166.226708 
z
" style="fill:#ff7f0e;opacity:0.4;"/>
   </g>
   <g id="patch_18">
    <path clip-path="url(#pd3e6827b3f)" d="M 83.196626 227.192347 
L 91.882873 227.192347 
L 91.882873 180.048877 
L 83.196626 180.048877 
z
" style="fill:#ff7f0e;opacity:0.4;"/>
   </g>
   <g id="patch_19">
    <path clip-path="url(#pd3e6827b3f)" d="M 91.882873 227.192347 
L 100.569119 227.192347 
L 100.569119 186.466313 
L 91.882873 186.466313 
z
" style="fill:#ff7f0e;opacity:0.4;"/>
   </g>
   <g id="patch_20">
    <path clip-path="url(#pd3e6827b3f)" d="M 100.569119 227.192347 
L 109.255366 227.192347 
L 109.255366 191.649627 
L 100.569119 191.649627 
z
" style="fill:#ff7f0e;opacity:0.4;"/>
   </g>
   <g id="patch_21">
    <path clip-path="url(#pd3e6827b3f)" d="M 109.255366 227.192347 
L 117.941613 227.192347 
L 117.941613 192.019863 
L 109.255366 192.019863 
z
" style="fill:#ff7f0e;opacity:0.4;"/>
   </g>
   <g id="patch_22">
    <path clip-path="url(#pd3e6827b3f)" d="M 117.941613 227.192347 
L 126.627859 227.192347 
L 126.627859 191.032565 
L 117.941613 191.032565 
z
" style="fill:#ff7f0e;opacity:0.4;"/>
   </g>
   <g id="patch_23">
    <path clip-path="url(#pd3e6827b3f)" d="M 126.627859 227.192347 
L 135.314106 227.192347 
L 135.314106 197.450001 
L 126.627859 197.450001 
z
" style="fill:#ff7f0e;opacity:0.4;"/>
   </g>
   <g id="patch_24">
    <path clip-path="url(#pd3e6827b3f)" d="M 135.314106 227.192347 
L 144.000353 227.192347 
L 144.000353 194.117871 
L 135.314106 194.117871 
z
" style="fill:#ff7f0e;opacity:0.4;"/>
   </g>
   <g id="patch_25">
    <path clip-path="url(#pd3e6827b3f)" d="M 144.000353 227.192347 
L 152.6866 227.192347 
L 152.6866 155.983493 
L 144.000353 155.983493 
z
" style="fill:#ff7f0e;opacity:0.4;"/>
   </g>
   <g id="patch_26">
    <path clip-path="url(#pd3e6827b3f)" d="M 152.6866 227.192347 
L 161.372846 227.192347 
L 161.372846 20.106633 
L 152.6866 20.106633 
z
" style="fill:#ff7f0e;opacity:0.4;"/>
   </g>
   <g id="matplotlib.axis_1">
    <g id="xtick_1">
     <g id="line2d_1">
      <defs>
       <path d="M 0 0 
L 0 3.5 
" id="m90098060f5" style="stroke:#000000;stroke-width:0.8;"/>
      </defs>
      <g>
       <use style="stroke:#000000;stroke-width:0.8;" x="57.058661" xlink:href="#m90098060f5" y="227.192347"/>
      </g>
     </g>
     <g id="text_1">
      <!-- 0.0 -->
      <defs>
       <path d="M 31.78125 66.40625 
Q 24.171875 66.40625 20.328125 58.90625 
Q 16.5 51.421875 16.5 36.375 
Q 16.5 21.390625 20.328125 13.890625 
Q 24.171875 6.390625 31.78125 6.390625 
Q 39.453125 6.390625 43.28125 13.890625 
Q 47.125 21.390625 47.125 36.375 
Q 47.125 51.421875 43.28125 58.90625 
Q 39.453125 66.40625 31.78125 66.40625 
z
M 31.78125 74.21875 
Q 44.046875 74.21875 50.515625 64.515625 
Q 56.984375 54.828125 56.984375 36.375 
Q 56.984375 17.96875 50.515625 8.265625 
Q 44.046875 -1.421875 31.78125 -1.421875 
Q 19.53125 -1.421875 13.0625 8.265625 
Q 6.59375 17.96875 6.59375 36.375 
Q 6.59375 54.828125 13.0625 64.515625 
Q 19.53125 74.21875 31.78125 74.21875 
z
" id="DejaVuSans-48"/>
       <path d="M 10.6875 12.40625 
L 21 12.40625 
L 21 0 
L 10.6875 0 
z
" id="DejaVuSans-46"/>
      </defs>
      <g transform="translate(49.107098 241.790785)scale(0.1 -0.1)">
       <use xlink:href="#DejaVuSans-48"/>
       <use x="63.623047" xlink:href="#DejaVuSans-46"/>
       <use x="95.410156" xlink:href="#DejaVuSans-48"/>
      </g>
     </g>
    </g>
    <g id="xtick_2">
     <g id="line2d_2">
      <g>
       <use style="stroke:#000000;stroke-width:0.8;" x="109.420196" xlink:href="#m90098060f5" y="227.192347"/>
      </g>
     </g>
     <g id="text_2">
      <!-- 0.2 -->
      <defs>
       <path d="M 19.1875 8.296875 
L 53.609375 8.296875 
L 53.609375 0 
L 7.328125 0 
L 7.328125 8.296875 
Q 12.9375 14.109375 22.625 23.890625 
Q 32.328125 33.6875 34.8125 36.53125 
Q 39.546875 41.84375 41.421875 45.53125 
Q 43.3125 49.21875 43.3125 52.78125 
Q 43.3125 58.59375 39.234375 62.25 
Q 35.15625 65.921875 28.609375 65.921875 
Q 23.96875 65.921875 18.8125 64.3125 
Q 13.671875 62.703125 7.8125 59.421875 
L 7.8125 69.390625 
Q 13.765625 71.78125 18.9375 73 
Q 24.125 74.21875 28.421875 74.21875 
Q 39.75 74.21875 46.484375 68.546875 
Q 53.21875 62.890625 53.21875 53.421875 
Q 53.21875 48.921875 51.53125 44.890625 
Q 49.859375 40.875 45.40625 35.40625 
Q 44.1875 33.984375 37.640625 27.21875 
Q 31.109375 20.453125 19.1875 8.296875 
z
" id="DejaVuSans-50"/>
      </defs>
      <g transform="translate(101.468634 241.790785)scale(0.1 -0.1)">
       <use xlink:href="#DejaVuSans-48"/>
       <use x="63.623047" xlink:href="#DejaVuSans-46"/>
       <use x="95.410156" xlink:href="#DejaVuSans-50"/>
      </g>
     </g>
    </g>
    <g id="xtick_3">
     <g id="line2d_3">
      <g>
       <use style="stroke:#000000;stroke-width:0.8;" x="161.781732" xlink:href="#m90098060f5" y="227.192347"/>
      </g>
     </g>
     <g id="text_3">
      <!-- 0.4 -->
      <defs>
       <path d="M 37.796875 64.3125 
L 12.890625 25.390625 
L 37.796875 25.390625 
z
M 35.203125 72.90625 
L 47.609375 72.90625 
L 47.609375 25.390625 
L 58.015625 25.390625 
L 58.015625 17.1875 
L 47.609375 17.1875 
L 47.609375 0 
L 37.796875 0 
L 37.796875 17.1875 
L 4.890625 17.1875 
L 4.890625 26.703125 
z
" id="DejaVuSans-52"/>
      </defs>
      <g transform="translate(153.83017 241.790785)scale(0.1 -0.1)">
       <use xlink:href="#DejaVuSans-48"/>
       <use x="63.623047" xlink:href="#DejaVuSans-46"/>
       <use x="95.410156" xlink:href="#DejaVuSans-52"/>
      </g>
     </g>
    </g>
    <g id="xtick_4">
     <g id="line2d_4">
      <g>
       <use style="stroke:#000000;stroke-width:0.8;" x="214.143268" xlink:href="#m90098060f5" y="227.192347"/>
      </g>
     </g>
     <g id="text_4">
      <!-- 0.6 -->
      <defs>
       <path d="M 33.015625 40.375 
Q 26.375 40.375 22.484375 35.828125 
Q 18.609375 31.296875 18.609375 23.390625 
Q 18.609375 15.53125 22.484375 10.953125 
Q 26.375 6.390625 33.015625 6.390625 
Q 39.65625 6.390625 43.53125 10.953125 
Q 47.40625 15.53125 47.40625 23.390625 
Q 47.40625 31.296875 43.53125 35.828125 
Q 39.65625 40.375 33.015625 40.375 
z
M 52.59375 71.296875 
L 52.59375 62.3125 
Q 48.875 64.0625 45.09375 64.984375 
Q 41.3125 65.921875 37.59375 65.921875 
Q 27.828125 65.921875 22.671875 59.328125 
Q 17.53125 52.734375 16.796875 39.40625 
Q 19.671875 43.65625 24.015625 45.921875 
Q 28.375 48.1875 33.59375 48.1875 
Q 44.578125 48.1875 50.953125 41.515625 
Q 57.328125 34.859375 57.328125 23.390625 
Q 57.328125 12.15625 50.6875 5.359375 
Q 44.046875 -1.421875 33.015625 -1.421875 
Q 20.359375 -1.421875 13.671875 8.265625 
Q 6.984375 17.96875 6.984375 36.375 
Q 6.984375 53.65625 15.1875 63.9375 
Q 23.390625 74.21875 37.203125 74.21875 
Q 40.921875 74.21875 44.703125 73.484375 
Q 48.484375 72.75 52.59375 71.296875 
z
" id="DejaVuSans-54"/>
      </defs>
      <g transform="translate(206.191705 241.790785)scale(0.1 -0.1)">
       <use xlink:href="#DejaVuSans-48"/>
       <use x="63.623047" xlink:href="#DejaVuSans-46"/>
       <use x="95.410156" xlink:href="#DejaVuSans-54"/>
      </g>
     </g>
    </g>
    <g id="xtick_5">
     <g id="line2d_5">
      <g>
       <use style="stroke:#000000;stroke-width:0.8;" x="266.504804" xlink:href="#m90098060f5" y="227.192347"/>
      </g>
     </g>
     <g id="text_5">
      <!-- 0.8 -->
      <defs>
       <path d="M 31.78125 34.625 
Q 24.75 34.625 20.71875 30.859375 
Q 16.703125 27.09375 16.703125 20.515625 
Q 16.703125 13.921875 20.71875 10.15625 
Q 24.75 6.390625 31.78125 6.390625 
Q 38.8125 6.390625 42.859375 10.171875 
Q 46.921875 13.96875 46.921875 20.515625 
Q 46.921875 27.09375 42.890625 30.859375 
Q 38.875 34.625 31.78125 34.625 
z
M 21.921875 38.8125 
Q 15.578125 40.375 12.03125 44.71875 
Q 8.5 49.078125 8.5 55.328125 
Q 8.5 64.0625 14.71875 69.140625 
Q 20.953125 74.21875 31.78125 74.21875 
Q 42.671875 74.21875 48.875 69.140625 
Q 55.078125 64.0625 55.078125 55.328125 
Q 55.078125 49.078125 51.53125 44.71875 
Q 48 40.375 41.703125 38.8125 
Q 48.828125 37.15625 52.796875 32.3125 
Q 56.78125 27.484375 56.78125 20.515625 
Q 56.78125 9.90625 50.3125 4.234375 
Q 43.84375 -1.421875 31.78125 -1.421875 
Q 19.734375 -1.421875 13.25 4.234375 
Q 6.78125 9.90625 6.78125 20.515625 
Q 6.78125 27.484375 10.78125 32.3125 
Q 14.796875 37.15625 21.921875 38.8125 
z
M 18.3125 54.390625 
Q 18.3125 48.734375 21.84375 45.5625 
Q 25.390625 42.390625 31.78125 42.390625 
Q 38.140625 42.390625 41.71875 45.5625 
Q 45.3125 48.734375 45.3125 54.390625 
Q 45.3125 60.0625 41.71875 63.234375 
Q 38.140625 66.40625 31.78125 66.40625 
Q 25.390625 66.40625 21.84375 63.234375 
Q 18.3125 60.0625 18.3125 54.390625 
z
" id="DejaVuSans-56"/>
      </defs>
      <g transform="translate(258.553241 241.790785)scale(0.1 -0.1)">
       <use xlink:href="#DejaVuSans-48"/>
       <use x="63.623047" xlink:href="#DejaVuSans-46"/>
       <use x="95.410156" xlink:href="#DejaVuSans-56"/>
      </g>
     </g>
    </g>
    <g id="xtick_6">
     <g id="line2d_6">
      <g>
       <use style="stroke:#000000;stroke-width:0.8;" x="318.866339" xlink:href="#m90098060f5" y="227.192347"/>
      </g>
     </g>
     <g id="text_6">
      <!-- 1.0 -->
      <defs>
       <path d="M 12.40625 8.296875 
L 28.515625 8.296875 
L 28.515625 63.921875 
L 10.984375 60.40625 
L 10.984375 69.390625 
L 28.421875 72.90625 
L 38.28125 72.90625 
L 38.28125 8.296875 
L 54.390625 8.296875 
L 54.390625 0 
L 12.40625 0 
z
" id="DejaVuSans-49"/>
      </defs>
      <g transform="translate(310.914777 241.790785)scale(0.1 -0.1)">
       <use xlink:href="#DejaVuSans-49"/>
       <use x="63.623047" xlink:href="#DejaVuSans-46"/>
       <use x="95.410156" xlink:href="#DejaVuSans-48"/>
      </g>
     </g>
    </g>
   </g>
   <g id="matplotlib.axis_2">
    <g id="ytick_1">
     <g id="line2d_7">
      <defs>
       <path d="M 0 0 
L -3.5 0 
" id="m57c8e36cc4" style="stroke:#000000;stroke-width:0.8;"/>
      </defs>
      <g>
       <use style="stroke:#000000;stroke-width:0.8;" x="20.5625" xlink:href="#m57c8e36cc4" y="227.192347"/>
      </g>
     </g>
     <g id="text_7">
      <!-- 0 -->
      <g transform="translate(7.2 230.991566)scale(0.1 -0.1)">
       <use xlink:href="#DejaVuSans-48"/>
      </g>
     </g>
    </g>
    <g id="ytick_2">
     <g id="line2d_8">
      <g>
       <use style="stroke:#000000;stroke-width:0.8;" x="20.5625" xlink:href="#m57c8e36cc4" y="200.168206"/>
      </g>
     </g>
     <g id="text_8">
      <!-- 1 -->
      <g transform="translate(7.2 203.967425)scale(0.1 -0.1)">
       <use xlink:href="#DejaVuSans-49"/>
      </g>
     </g>
    </g>
    <g id="ytick_3">
     <g id="line2d_9">
      <g>
       <use style="stroke:#000000;stroke-width:0.8;" x="20.5625" xlink:href="#m57c8e36cc4" y="173.144065"/>
      </g>
     </g>
     <g id="text_9">
      <!-- 2 -->
      <g transform="translate(7.2 176.943284)scale(0.1 -0.1)">
       <use xlink:href="#DejaVuSans-50"/>
      </g>
     </g>
    </g>
    <g id="ytick_4">
     <g id="line2d_10">
      <g>
       <use style="stroke:#000000;stroke-width:0.8;" x="20.5625" xlink:href="#m57c8e36cc4" y="146.119924"/>
      </g>
     </g>
     <g id="text_10">
      <!-- 3 -->
      <defs>
       <path d="M 40.578125 39.3125 
Q 47.65625 37.796875 51.625 33 
Q 55.609375 28.21875 55.609375 21.1875 
Q 55.609375 10.40625 48.1875 4.484375 
Q 40.765625 -1.421875 27.09375 -1.421875 
Q 22.515625 -1.421875 17.65625 -0.515625 
Q 12.796875 0.390625 7.625 2.203125 
L 7.625 11.71875 
Q 11.71875 9.328125 16.59375 8.109375 
Q 21.484375 6.890625 26.8125 6.890625 
Q 36.078125 6.890625 40.9375 10.546875 
Q 45.796875 14.203125 45.796875 21.1875 
Q 45.796875 27.640625 41.28125 31.265625 
Q 36.765625 34.90625 28.71875 34.90625 
L 20.21875 34.90625 
L 20.21875 43.015625 
L 29.109375 43.015625 
Q 36.375 43.015625 40.234375 45.921875 
Q 44.09375 48.828125 44.09375 54.296875 
Q 44.09375 59.90625 40.109375 62.90625 
Q 36.140625 65.921875 28.71875 65.921875 
Q 24.65625 65.921875 20.015625 65.03125 
Q 15.375 64.15625 9.8125 62.3125 
L 9.8125 71.09375 
Q 15.4375 72.65625 20.34375 73.4375 
Q 25.25 74.21875 29.59375 74.21875 
Q 40.828125 74.21875 47.359375 69.109375 
Q 53.90625 64.015625 53.90625 55.328125 
Q 53.90625 49.265625 50.4375 45.09375 
Q 46.96875 40.921875 40.578125 39.3125 
z
" id="DejaVuSans-51"/>
      </defs>
      <g transform="translate(7.2 149.919143)scale(0.1 -0.1)">
       <use xlink:href="#DejaVuSans-51"/>
      </g>
     </g>
    </g>
    <g id="ytick_5">
     <g id="line2d_11">
      <g>
       <use style="stroke:#000000;stroke-width:0.8;" x="20.5625" xlink:href="#m57c8e36cc4" y="119.095783"/>
      </g>
     </g>
     <g id="text_11">
      <!-- 4 -->
      <g transform="translate(7.2 122.895002)scale(0.1 -0.1)">
       <use xlink:href="#DejaVuSans-52"/>
      </g>
     </g>
    </g>
    <g id="ytick_6">
     <g id="line2d_12">
      <g>
       <use style="stroke:#000000;stroke-width:0.8;" x="20.5625" xlink:href="#m57c8e36cc4" y="92.071642"/>
      </g>
     </g>
     <g id="text_12">
      <!-- 5 -->
      <defs>
       <path d="M 10.796875 72.90625 
L 49.515625 72.90625 
L 49.515625 64.59375 
L 19.828125 64.59375 
L 19.828125 46.734375 
Q 21.96875 47.46875 24.109375 47.828125 
Q 26.265625 48.1875 28.421875 48.1875 
Q 40.625 48.1875 47.75 41.5 
Q 54.890625 34.8125 54.890625 23.390625 
Q 54.890625 11.625 47.5625 5.09375 
Q 40.234375 -1.421875 26.90625 -1.421875 
Q 22.3125 -1.421875 17.546875 -0.640625 
Q 12.796875 0.140625 7.71875 1.703125 
L 7.71875 11.625 
Q 12.109375 9.234375 16.796875 8.0625 
Q 21.484375 6.890625 26.703125 6.890625 
Q 35.15625 6.890625 40.078125 11.328125 
Q 45.015625 15.765625 45.015625 23.390625 
Q 45.015625 31 40.078125 35.4375 
Q 35.15625 39.890625 26.703125 39.890625 
Q 22.75 39.890625 18.8125 39.015625 
Q 14.890625 38.140625 10.796875 36.28125 
z
" id="DejaVuSans-53"/>
      </defs>
      <g transform="translate(7.2 95.870861)scale(0.1 -0.1)">
       <use xlink:href="#DejaVuSans-53"/>
      </g>
     </g>
    </g>
    <g id="ytick_7">
     <g id="line2d_13">
      <g>
       <use style="stroke:#000000;stroke-width:0.8;" x="20.5625" xlink:href="#m57c8e36cc4" y="65.047501"/>
      </g>
     </g>
     <g id="text_13">
      <!-- 6 -->
      <g transform="translate(7.2 68.84672)scale(0.1 -0.1)">
       <use xlink:href="#DejaVuSans-54"/>
      </g>
     </g>
    </g>
    <g id="ytick_8">
     <g id="line2d_14">
      <g>
       <use style="stroke:#000000;stroke-width:0.8;" x="20.5625" xlink:href="#m57c8e36cc4" y="38.02336"/>
      </g>
     </g>
     <g id="text_14">
      <!-- 7 -->
      <defs>
       <path d="M 8.203125 72.90625 
L 55.078125 72.90625 
L 55.078125 68.703125 
L 28.609375 0 
L 18.3125 0 
L 43.21875 64.59375 
L 8.203125 64.59375 
z
" id="DejaVuSans-55"/>
      </defs>
      <g transform="translate(7.2 41.822579)scale(0.1 -0.1)">
       <use xlink:href="#DejaVuSans-55"/>
      </g>
     </g>
    </g>
    <g id="ytick_9">
     <g id="line2d_15">
      <g>
       <use style="stroke:#000000;stroke-width:0.8;" x="20.5625" xlink:href="#m57c8e36cc4" y="10.999219"/>
      </g>
     </g>
     <g id="text_15">
      <!-- 8 -->
      <g transform="translate(7.2 14.798437)scale(0.1 -0.1)">
       <use xlink:href="#DejaVuSans-56"/>
      </g>
     </g>
    </g>
   </g>
   <g id="line2d_16">
    <path clip-path="url(#pd3e6827b3f)" d="M 193.19495 225.854574 
L 194.352031 225.19894 
L 195.509113 224.173804 
L 196.666195 222.666212 
L 197.823276 220.539877 
L 198.980358 217.64381 
L 200.13744 213.826183 
L 201.294521 208.953613 
L 202.451603 202.934873 
L 203.608685 195.74663 
L 204.765766 187.457427 
L 207.079929 168.403413 
L 209.394093 148.511048 
L 210.551174 139.459102 
L 211.708256 131.679741 
L 212.865338 125.604848 
L 214.022419 121.543187 
L 215.179501 119.643447 
L 216.336583 119.878536 
L 217.493664 122.054161 
L 218.650746 125.840147 
L 219.807828 130.818608 
L 222.121991 142.577797 
L 224.436154 154.251797 
L 225.593236 159.453671 
L 226.750317 164.102741 
L 227.907399 168.197621 
L 229.064481 171.783467 
L 230.221562 174.926547 
L 231.378644 177.693943 
L 232.535726 180.14085 
L 233.692807 182.305672 
L 234.849889 184.211374 
L 236.006971 185.870578 
L 237.164052 187.291783 
L 238.321134 188.484662 
L 239.478215 189.463249 
L 240.635297 190.246801 
L 241.792379 190.858792 
L 242.94946 191.324859 
L 245.263624 191.919489 
L 247.577787 192.206002 
L 251.049032 192.317116 
L 255.677358 192.181579 
L 259.148603 191.915123 
L 262.619848 191.43549 
L 266.091093 190.68509 
L 269.562338 189.642358 
L 273.033583 188.294376 
L 276.504828 186.663304 
L 281.133154 184.172544 
L 283.447318 182.770359 
L 285.761481 181.135987 
L 288.075644 179.088267 
L 289.232726 177.845921 
L 290.389808 176.427647 
L 291.546889 174.816597 
L 293.861053 170.981893 
L 296.175216 166.345304 
L 298.489379 161.019729 
L 305.431869 143.792152 
L 306.588951 141.446531 
L 307.746032 139.538454 
L 308.903114 138.209025 
L 310.060196 137.602185 
L 311.217277 137.852761 
L 312.374359 139.07241 
L 313.53144 141.335174 
L 314.688522 144.664786 
L 315.845604 149.025907 
L 317.002685 154.321087 
L 319.316849 167.04232 
L 323.945175 194.60158 
L 325.102257 200.635246 
L 326.259338 206.014888 
L 327.41642 210.672703 
L 328.573502 214.59103 
L 329.730583 217.794798 
L 330.887665 220.341098 
L 332.044747 222.307589 
L 333.201828 223.78124 
L 334.35891 224.848464 
L 335.515992 225.587183 
L 336.673073 226.060856 
L 337.830155 226.314154 
L 338.987237 226.369793 
L 340.144318 226.226031 
L 340.144318 226.226031 
" style="fill:none;stroke:#1f77b4;stroke-linecap:square;stroke-width:1.5;"/>
   </g>
   <g id="line2d_17">
    <path clip-path="url(#pd3e6827b3f)" d="M 35.780682 226.226031 
L 36.937763 226.369793 
L 38.094845 226.314154 
L 39.251927 226.060856 
L 40.409008 225.587183 
L 41.56609 224.848464 
L 42.723172 223.78124 
L 43.880253 222.307589 
L 45.037335 220.341098 
L 46.194417 217.794798 
L 47.351498 214.59103 
L 48.50858 210.672703 
L 49.665662 206.014888 
L 50.822743 200.635246 
L 53.136906 188.034829 
L 57.765233 160.394486 
L 58.922315 154.321087 
L 60.079396 149.025907 
L 61.236478 144.664786 
L 62.39356 141.335174 
L 63.550641 139.07241 
L 64.707723 137.852761 
L 65.864804 137.602185 
L 67.021886 138.209025 
L 68.178968 139.538454 
L 69.336049 141.446531 
L 70.493131 143.792152 
L 72.807294 149.29482 
L 78.592703 163.757644 
L 80.906866 168.759188 
L 83.221029 173.002402 
L 85.535192 176.427647 
L 86.692274 177.845921 
L 89.006437 180.176606 
L 91.320601 181.992359 
L 93.634764 183.491436 
L 97.106009 185.457202 
L 100.577254 187.234152 
L 104.048499 188.777635 
L 107.519744 190.023368 
L 110.990988 190.966995 
L 114.462233 191.623586 
L 117.933478 192.02361 
L 122.561805 192.278056 
L 126.03305 192.308816 
L 128.347213 192.206002 
L 130.661376 191.919489 
L 132.97554 191.324859 
L 134.132621 190.858792 
L 135.289703 190.246801 
L 136.446785 189.463249 
L 137.603866 188.484662 
L 138.760948 187.291783 
L 139.918029 185.870578 
L 141.075111 184.211374 
L 142.232193 182.305672 
L 143.389274 180.14085 
L 144.546356 177.693943 
L 145.703438 174.926547 
L 146.860519 171.783467 
L 148.017601 168.197621 
L 149.174683 164.102741 
L 150.331764 159.453671 
L 152.645928 148.570967 
L 156.117172 130.818608 
L 157.274254 125.840147 
L 158.431336 122.054161 
L 159.588417 119.878536 
L 160.745499 119.643447 
L 161.902581 121.543187 
L 163.059662 125.604848 
L 164.216744 131.679741 
L 165.373826 139.459102 
L 167.687989 158.331974 
L 170.002152 178.245197 
L 171.159234 187.457427 
L 172.316315 195.74663 
L 173.473397 202.934873 
L 174.630479 208.953613 
L 175.78756 213.826183 
L 176.944642 217.64381 
L 178.101724 220.539877 
L 179.258805 222.666212 
L 180.415887 224.173804 
L 181.572969 225.19894 
L 182.73005 225.854574 
L 182.73005 225.854574 
" style="fill:none;stroke:#ff7f0e;stroke-linecap:square;stroke-width:1.5;"/>
   </g>
   <g id="patch_27">
    <path d="M 20.5625 227.192347 
L 20.5625 9.752347 
" style="fill:none;stroke:#000000;stroke-linecap:square;stroke-linejoin:miter;stroke-width:0.8;"/>
   </g>
   <g id="patch_28">
    <path d="M 355.3625 227.192347 
L 355.3625 9.752347 
" style="fill:none;stroke:#000000;stroke-linecap:square;stroke-linejoin:miter;stroke-width:0.8;"/>
   </g>
   <g id="patch_29">
    <path d="M 20.5625 227.192347 
L 355.3625 227.192347 
" style="fill:none;stroke:#000000;stroke-linecap:square;stroke-linejoin:miter;stroke-width:0.8;"/>
   </g>
   <g id="patch_30">
    <path d="M 20.5625 9.752347 
L 355.3625 9.752347 
" style="fill:none;stroke:#000000;stroke-linecap:square;stroke-linejoin:miter;stroke-width:0.8;"/>
   </g>
  </g>
 </g>
 <defs>
  <clipPath id="pd3e6827b3f">
   <rect height="217.44" width="334.8" x="20.5625" y="9.752347"/>
  </clipPath>
 </defs>
</svg>
