<?xml version="1.0" encoding="utf-8" standalone="no"?>
<!DOCTYPE svg PUBLIC "-//W3C//DTD SVG 1.1//EN"
  "http://www.w3.org/Graphics/SVG/1.1/DTD/svg11.dtd">
<!-- Created with matplotlib (https://matplotlib.org/) -->
<svg height="262.19625pt" version="1.1" viewBox="0 0 373.323402 262.19625" width="373.323402pt" xmlns="http://www.w3.org/2000/svg" xmlns:xlink="http://www.w3.org/1999/xlink">
 <defs>
  <style type="text/css">
*{stroke-linecap:butt;stroke-linejoin:round;}
  </style>
 </defs>
 <g id="figure_1">
  <g id="patch_1">
   <path d="M -0 262.19625 
L 373.323402 262.19625 
L 373.323402 0 
L -0 0 
z
" style="fill:none;"/>
  </g>
  <g id="axes_1">
   <g id="patch_2">
    <path d="M 26.925 224.64 
L 361.725 224.64 
L 361.725 7.2 
L 26.925 7.2 
z
" style="fill:#ffffff;"/>
   </g>
   <g id="PolyCollection_1">
    <defs>
     <path d="M 249.169368 -37.55625 
L 249.169368 -244.641964 
L 314.570851 -244.641964 
L 314.570851 -37.55625 
L 314.570851 -37.55625 
L 249.169368 -37.55625 
z
" id="m105dd429e5" style="stroke:#000000;stroke-opacity:0.2;"/>
    </defs>
    <g clip-path="url(#pf8dc4865f3)">
     <use style="fill-opacity:0.2;stroke:#000000;stroke-opacity:0.2;" x="0" xlink:href="#m105dd429e5" y="262.19625"/>
    </g>
   </g>
   <g id="patch_3">
    <path clip-path="url(#pf8dc4865f3)" d="M 85.830585 224.64 
L 101.329787 224.64 
L 101.329787 208.331627 
L 85.830585 208.331627 
z
" style="fill:#1f77b4;opacity:0.4;"/>
   </g>
   <g id="patch_4">
    <path clip-path="url(#pf8dc4865f3)" d="M 101.329787 224.64 
L 116.828989 224.64 
L 116.828989 214.518721 
L 101.329787 214.518721 
z
" style="fill:#1f77b4;opacity:0.4;"/>
   </g>
   <g id="patch_5">
    <path clip-path="url(#pf8dc4865f3)" d="M 116.828989 224.64 
L 132.328192 224.64 
L 132.328192 216.149558 
L 116.828989 216.149558 
z
" style="fill:#1f77b4;opacity:0.4;"/>
   </g>
   <g id="patch_6">
    <path clip-path="url(#pf8dc4865f3)" d="M 132.328192 224.64 
L 147.827394 224.64 
L 147.827394 218.890037 
L 132.328192 218.890037 
z
" style="fill:#1f77b4;opacity:0.4;"/>
   </g>
   <g id="patch_7">
    <path clip-path="url(#pf8dc4865f3)" d="M 147.827394 224.64 
L 163.326596 224.64 
L 163.326596 219.528922 
L 147.827394 219.528922 
z
" style="fill:#1f77b4;opacity:0.4;"/>
   </g>
   <g id="patch_8">
    <path clip-path="url(#pf8dc4865f3)" d="M 163.326596 224.64 
L 178.825798 224.64 
L 178.825798 220.268683 
L 163.326596 220.268683 
z
" style="fill:#1f77b4;opacity:0.4;"/>
   </g>
   <g id="patch_9">
    <path clip-path="url(#pf8dc4865f3)" d="M 178.825798 224.64 
L 194.325 224.64 
L 194.325 220.604939 
L 178.825798 220.604939 
z
" style="fill:#1f77b4;opacity:0.4;"/>
   </g>
   <g id="patch_10">
    <path clip-path="url(#pf8dc4865f3)" d="M 194.325 224.64 
L 209.824202 224.64 
L 209.824202 220.941194 
L 194.325 220.941194 
z
" style="fill:#1f77b4;opacity:0.4;"/>
   </g>
   <g id="patch_11">
    <path clip-path="url(#pf8dc4865f3)" d="M 209.824202 224.64 
L 225.323404 224.64 
L 225.323404 220.941194 
L 209.824202 220.941194 
z
" style="fill:#1f77b4;opacity:0.4;"/>
   </g>
   <g id="patch_12">
    <path clip-path="url(#pf8dc4865f3)" d="M 225.323404 224.64 
L 240.822606 224.64 
L 240.822606 221.243823 
L 225.323404 221.243823 
z
" style="fill:#1f77b4;opacity:0.4;"/>
   </g>
   <g id="patch_13">
    <path clip-path="url(#pf8dc4865f3)" d="M 240.822606 224.64 
L 256.321808 224.64 
L 256.321808 220.756253 
L 240.822606 220.756253 
z
" style="fill:#1f77b4;opacity:0.4;"/>
   </g>
   <g id="patch_14">
    <path clip-path="url(#pf8dc4865f3)" d="M 256.321808 224.64 
L 271.821011 224.64 
L 271.821011 222.639282 
L 256.321808 222.639282 
z
" style="fill:#1f77b4;opacity:0.4;"/>
   </g>
   <g id="patch_15">
    <path clip-path="url(#pf8dc4865f3)" d="M 271.821011 224.64 
L 287.320213 224.64 
L 287.320213 219.007727 
L 271.821011 219.007727 
z
" style="fill:#1f77b4;opacity:0.4;"/>
   </g>
   <g id="patch_16">
    <path clip-path="url(#pf8dc4865f3)" d="M 287.320213 224.64 
L 302.819415 224.64 
L 302.819415 210.113779 
L 287.320213 210.113779 
z
" style="fill:#1f77b4;opacity:0.4;"/>
   </g>
   <g id="patch_17">
    <path clip-path="url(#pf8dc4865f3)" d="M 150.917466 224.64 
L 155.664402 224.64 
L 155.664402 224.389407 
L 150.917466 224.389407 
z
" style="fill:#ff7f0e;opacity:0.4;"/>
   </g>
   <g id="patch_18">
    <path clip-path="url(#pf8dc4865f3)" d="M 155.664402 224.64 
L 160.411338 224.64 
L 160.411338 223.888222 
L 155.664402 223.888222 
z
" style="fill:#ff7f0e;opacity:0.4;"/>
   </g>
   <g id="patch_19">
    <path clip-path="url(#pf8dc4865f3)" d="M 160.411338 224.64 
L 165.158274 224.64 
L 165.158274 223.637629 
L 160.411338 223.637629 
z
" style="fill:#ff7f0e;opacity:0.4;"/>
   </g>
   <g id="patch_20">
    <path clip-path="url(#pf8dc4865f3)" d="M 165.158274 224.64 
L 169.90521 224.64 
L 169.90521 224.389407 
L 165.158274 224.389407 
z
" style="fill:#ff7f0e;opacity:0.4;"/>
   </g>
   <g id="patch_21">
    <path clip-path="url(#pf8dc4865f3)" d="M 169.90521 224.64 
L 174.652146 224.64 
L 174.652146 223.637629 
L 169.90521 223.637629 
z
" style="fill:#ff7f0e;opacity:0.4;"/>
   </g>
   <g id="patch_22">
    <path clip-path="url(#pf8dc4865f3)" d="M 174.652146 224.64 
L 179.399082 224.64 
L 179.399082 224.138815 
L 174.652146 224.138815 
z
" style="fill:#ff7f0e;opacity:0.4;"/>
   </g>
   <g id="patch_23">
    <path clip-path="url(#pf8dc4865f3)" d="M 179.399082 224.64 
L 184.146018 224.64 
L 184.146018 223.387036 
L 179.399082 223.387036 
z
" style="fill:#ff7f0e;opacity:0.4;"/>
   </g>
   <g id="patch_24">
    <path clip-path="url(#pf8dc4865f3)" d="M 184.146018 224.64 
L 188.892953 224.64 
L 188.892953 222.885851 
L 184.146018 222.885851 
z
" style="fill:#ff7f0e;opacity:0.4;"/>
   </g>
   <g id="patch_25">
    <path clip-path="url(#pf8dc4865f3)" d="M 188.892953 224.64 
L 193.639889 224.64 
L 193.639889 223.387036 
L 188.892953 223.387036 
z
" style="fill:#ff7f0e;opacity:0.4;"/>
   </g>
   <g id="patch_26">
    <path clip-path="url(#pf8dc4865f3)" d="M 193.639889 224.64 
L 198.386825 224.64 
L 198.386825 222.134073 
L 193.639889 222.134073 
z
" style="fill:#ff7f0e;opacity:0.4;"/>
   </g>
   <g id="patch_27">
    <path clip-path="url(#pf8dc4865f3)" d="M 198.386825 224.64 
L 203.133761 224.64 
L 203.133761 224.138815 
L 198.386825 224.138815 
z
" style="fill:#ff7f0e;opacity:0.4;"/>
   </g>
   <g id="patch_28">
    <path clip-path="url(#pf8dc4865f3)" d="M 203.133761 224.64 
L 207.880697 224.64 
L 207.880697 223.136444 
L 203.133761 223.136444 
z
" style="fill:#ff7f0e;opacity:0.4;"/>
   </g>
   <g id="patch_29">
    <path clip-path="url(#pf8dc4865f3)" d="M 207.880697 224.64 
L 212.627633 224.64 
L 212.627633 223.387036 
L 207.880697 223.387036 
z
" style="fill:#ff7f0e;opacity:0.4;"/>
   </g>
   <g id="patch_30">
    <path clip-path="url(#pf8dc4865f3)" d="M 212.627633 224.64 
L 217.374569 224.64 
L 217.374569 220.881109 
L 212.627633 220.881109 
z
" style="fill:#ff7f0e;opacity:0.4;"/>
   </g>
   <g id="patch_31">
    <path clip-path="url(#pf8dc4865f3)" d="M 217.374569 224.64 
L 222.121505 224.64 
L 222.121505 224.138815 
L 217.374569 224.138815 
z
" style="fill:#ff7f0e;opacity:0.4;"/>
   </g>
   <g id="patch_32">
    <path clip-path="url(#pf8dc4865f3)" d="M 222.121505 224.64 
L 226.868441 224.64 
L 226.868441 221.382295 
L 222.121505 221.382295 
z
" style="fill:#ff7f0e;opacity:0.4;"/>
   </g>
   <g id="patch_33">
    <path clip-path="url(#pf8dc4865f3)" d="M 226.868441 224.64 
L 231.615376 224.64 
L 231.615376 223.387036 
L 226.868441 223.387036 
z
" style="fill:#ff7f0e;opacity:0.4;"/>
   </g>
   <g id="patch_34">
    <path clip-path="url(#pf8dc4865f3)" d="M 231.615376 224.64 
L 236.362312 224.64 
L 236.362312 222.635258 
L 231.615376 222.635258 
z
" style="fill:#ff7f0e;opacity:0.4;"/>
   </g>
   <g id="patch_35">
    <path clip-path="url(#pf8dc4865f3)" d="M 236.362312 224.64 
L 241.109248 224.64 
L 241.109248 217.623404 
L 236.362312 217.623404 
z
" style="fill:#ff7f0e;opacity:0.4;"/>
   </g>
   <g id="patch_36">
    <path clip-path="url(#pf8dc4865f3)" d="M 241.109248 224.64 
L 245.856184 224.64 
L 245.856184 222.134073 
L 241.109248 222.134073 
z
" style="fill:#ff7f0e;opacity:0.4;"/>
   </g>
   <g id="patch_37">
    <path clip-path="url(#pf8dc4865f3)" d="M 245.856184 224.64 
L 250.60312 224.64 
L 250.60312 222.384666 
L 245.856184 222.384666 
z
" style="fill:#ff7f0e;opacity:0.4;"/>
   </g>
   <g id="patch_38">
    <path clip-path="url(#pf8dc4865f3)" d="M 250.60312 224.64 
L 255.350056 224.64 
L 255.350056 219.12696 
L 250.60312 219.12696 
z
" style="fill:#ff7f0e;opacity:0.4;"/>
   </g>
   <g id="patch_39">
    <path clip-path="url(#pf8dc4865f3)" d="M 255.350056 224.64 
L 260.096992 224.64 
L 260.096992 221.382295 
L 255.350056 221.382295 
z
" style="fill:#ff7f0e;opacity:0.4;"/>
   </g>
   <g id="patch_40">
    <path clip-path="url(#pf8dc4865f3)" d="M 260.096992 224.64 
L 264.843928 224.64 
L 264.843928 223.136444 
L 260.096992 223.136444 
z
" style="fill:#ff7f0e;opacity:0.4;"/>
   </g>
   <g id="patch_41">
    <path clip-path="url(#pf8dc4865f3)" d="M 264.843928 224.64 
L 269.590864 224.64 
L 269.590864 222.885851 
L 264.843928 222.885851 
z
" style="fill:#ff7f0e;opacity:0.4;"/>
   </g>
   <g id="patch_42">
    <path clip-path="url(#pf8dc4865f3)" d="M 269.590864 224.64 
L 274.337799 224.64 
L 274.337799 216.37044 
L 269.590864 216.37044 
z
" style="fill:#ff7f0e;opacity:0.4;"/>
   </g>
   <g id="patch_43">
    <path clip-path="url(#pf8dc4865f3)" d="M 274.337799 224.64 
L 279.084735 224.64 
L 279.084735 189.807612 
L 274.337799 189.807612 
z
" style="fill:#ff7f0e;opacity:0.4;"/>
   </g>
   <g id="patch_44">
    <path clip-path="url(#pf8dc4865f3)" d="M 279.084735 224.64 
L 283.831671 224.64 
L 283.831671 222.885851 
L 279.084735 222.885851 
z
" style="fill:#ff7f0e;opacity:0.4;"/>
   </g>
   <g id="patch_45">
    <path clip-path="url(#pf8dc4865f3)" d="M 283.831671 224.64 
L 288.578607 224.64 
L 288.578607 224.64 
L 283.831671 224.64 
z
" style="fill:#ff7f0e;opacity:0.4;"/>
   </g>
   <g id="patch_46">
    <path clip-path="url(#pf8dc4865f3)" d="M 288.578607 224.64 
L 293.325543 224.64 
L 293.325543 224.64 
L 288.578607 224.64 
z
" style="fill:#ff7f0e;opacity:0.4;"/>
   </g>
   <g id="patch_47">
    <path clip-path="url(#pf8dc4865f3)" d="M 293.325543 224.64 
L 298.072479 224.64 
L 298.072479 224.64 
L 293.325543 224.64 
z
" style="fill:#ff7f0e;opacity:0.4;"/>
   </g>
   <g id="patch_48">
    <path clip-path="url(#pf8dc4865f3)" d="M 298.072479 224.64 
L 302.819415 224.64 
L 302.819415 20.657526 
L 298.072479 20.657526 
z
" style="fill:#ff7f0e;opacity:0.4;"/>
   </g>
   <g id="matplotlib.axis_1">
    <g id="xtick_1">
     <g id="line2d_1">
      <defs>
       <path d="M 0 0 
L 0 3.5 
" id="m8c82bb2df3" style="stroke:#000000;stroke-width:0.8;"/>
      </defs>
      <g>
       <use style="stroke:#000000;stroke-width:0.8;" x="31.164424" xlink:href="#m8c82bb2df3" y="224.64"/>
      </g>
     </g>
     <g id="text_1">
      <!-- −0.1 -->
      <defs>
       <path d="M 10.59375 35.5 
L 73.1875 35.5 
L 73.1875 27.203125 
L 10.59375 27.203125 
z
" id="DejaVuSans-8722"/>
       <path d="M 31.78125 66.40625 
Q 24.171875 66.40625 20.328125 58.90625 
Q 16.5 51.421875 16.5 36.375 
Q 16.5 21.390625 20.328125 13.890625 
Q 24.171875 6.390625 31.78125 6.390625 
Q 39.453125 6.390625 43.28125 13.890625 
Q 47.125 21.390625 47.125 36.375 
Q 47.125 51.421875 43.28125 58.90625 
Q 39.453125 66.40625 31.78125 66.40625 
z
M 31.78125 74.21875 
Q 44.046875 74.21875 50.515625 64.515625 
Q 56.984375 54.828125 56.984375 36.375 
Q 56.984375 17.96875 50.515625 8.265625 
Q 44.046875 -1.421875 31.78125 -1.421875 
Q 19.53125 -1.421875 13.0625 8.265625 
Q 6.59375 17.96875 6.59375 36.375 
Q 6.59375 54.828125 13.0625 64.515625 
Q 19.53125 74.21875 31.78125 74.21875 
z
" id="DejaVuSans-48"/>
       <path d="M 10.6875 12.40625 
L 21 12.40625 
L 21 0 
L 10.6875 0 
z
" id="DejaVuSans-46"/>
       <path d="M 12.40625 8.296875 
L 28.515625 8.296875 
L 28.515625 63.921875 
L 10.984375 60.40625 
L 10.984375 69.390625 
L 28.421875 72.90625 
L 38.28125 72.90625 
L 38.28125 8.296875 
L 54.390625 8.296875 
L 54.390625 0 
L 12.40625 0 
z
" id="DejaVuSans-49"/>
      </defs>
      <g transform="translate(19.023018 239.238437)scale(0.1 -0.1)">
       <use xlink:href="#DejaVuSans-8722"/>
       <use x="83.789062" xlink:href="#DejaVuSans-48"/>
       <use x="147.412109" xlink:href="#DejaVuSans-46"/>
       <use x="179.199219" xlink:href="#DejaVuSans-49"/>
      </g>
     </g>
    </g>
    <g id="xtick_2">
     <g id="line2d_2">
      <g>
       <use style="stroke:#000000;stroke-width:0.8;" x="85.66566" xlink:href="#m8c82bb2df3" y="224.64"/>
      </g>
     </g>
     <g id="text_2">
      <!-- 0.0 -->
      <g transform="translate(77.714098 239.238437)scale(0.1 -0.1)">
       <use xlink:href="#DejaVuSans-48"/>
       <use x="63.623047" xlink:href="#DejaVuSans-46"/>
       <use x="95.410156" xlink:href="#DejaVuSans-48"/>
      </g>
     </g>
    </g>
    <g id="xtick_3">
     <g id="line2d_3">
      <g>
       <use style="stroke:#000000;stroke-width:0.8;" x="140.166896" xlink:href="#m8c82bb2df3" y="224.64"/>
      </g>
     </g>
     <g id="text_3">
      <!-- 0.1 -->
      <g transform="translate(132.215334 239.238437)scale(0.1 -0.1)">
       <use xlink:href="#DejaVuSans-48"/>
       <use x="63.623047" xlink:href="#DejaVuSans-46"/>
       <use x="95.410156" xlink:href="#DejaVuSans-49"/>
      </g>
     </g>
    </g>
    <g id="xtick_4">
     <g id="line2d_4">
      <g>
       <use style="stroke:#000000;stroke-width:0.8;" x="194.668132" xlink:href="#m8c82bb2df3" y="224.64"/>
      </g>
     </g>
     <g id="text_4">
      <!-- 0.2 -->
      <defs>
       <path d="M 19.1875 8.296875 
L 53.609375 8.296875 
L 53.609375 0 
L 7.328125 0 
L 7.328125 8.296875 
Q 12.9375 14.109375 22.625 23.890625 
Q 32.328125 33.6875 34.8125 36.53125 
Q 39.546875 41.84375 41.421875 45.53125 
Q 43.3125 49.21875 43.3125 52.78125 
Q 43.3125 58.59375 39.234375 62.25 
Q 35.15625 65.921875 28.609375 65.921875 
Q 23.96875 65.921875 18.8125 64.3125 
Q 13.671875 62.703125 7.8125 59.421875 
L 7.8125 69.390625 
Q 13.765625 71.78125 18.9375 73 
Q 24.125 74.21875 28.421875 74.21875 
Q 39.75 74.21875 46.484375 68.546875 
Q 53.21875 62.890625 53.21875 53.421875 
Q 53.21875 48.921875 51.53125 44.890625 
Q 49.859375 40.875 45.40625 35.40625 
Q 44.1875 33.984375 37.640625 27.21875 
Q 31.109375 20.453125 19.1875 8.296875 
z
" id="DejaVuSans-50"/>
      </defs>
      <g transform="translate(186.71657 239.238437)scale(0.1 -0.1)">
       <use xlink:href="#DejaVuSans-48"/>
       <use x="63.623047" xlink:href="#DejaVuSans-46"/>
       <use x="95.410156" xlink:href="#DejaVuSans-50"/>
      </g>
     </g>
    </g>
    <g id="xtick_5">
     <g id="line2d_5">
      <g>
       <use style="stroke:#000000;stroke-width:0.8;" x="249.169368" xlink:href="#m8c82bb2df3" y="224.64"/>
      </g>
     </g>
     <g id="text_5">
      <!-- 0.3 -->
      <defs>
       <path d="M 40.578125 39.3125 
Q 47.65625 37.796875 51.625 33 
Q 55.609375 28.21875 55.609375 21.1875 
Q 55.609375 10.40625 48.1875 4.484375 
Q 40.765625 -1.421875 27.09375 -1.421875 
Q 22.515625 -1.421875 17.65625 -0.515625 
Q 12.796875 0.390625 7.625 2.203125 
L 7.625 11.71875 
Q 11.71875 9.328125 16.59375 8.109375 
Q 21.484375 6.890625 26.8125 6.890625 
Q 36.078125 6.890625 40.9375 10.546875 
Q 45.796875 14.203125 45.796875 21.1875 
Q 45.796875 27.640625 41.28125 31.265625 
Q 36.765625 34.90625 28.71875 34.90625 
L 20.21875 34.90625 
L 20.21875 43.015625 
L 29.109375 43.015625 
Q 36.375 43.015625 40.234375 45.921875 
Q 44.09375 48.828125 44.09375 54.296875 
Q 44.09375 59.90625 40.109375 62.90625 
Q 36.140625 65.921875 28.71875 65.921875 
Q 24.65625 65.921875 20.015625 65.03125 
Q 15.375 64.15625 9.8125 62.3125 
L 9.8125 71.09375 
Q 15.4375 72.65625 20.34375 73.4375 
Q 25.25 74.21875 29.59375 74.21875 
Q 40.828125 74.21875 47.359375 69.109375 
Q 53.90625 64.015625 53.90625 55.328125 
Q 53.90625 49.265625 50.4375 45.09375 
Q 46.96875 40.921875 40.578125 39.3125 
z
" id="DejaVuSans-51"/>
      </defs>
      <g transform="translate(241.217806 239.238437)scale(0.1 -0.1)">
       <use xlink:href="#DejaVuSans-48"/>
       <use x="63.623047" xlink:href="#DejaVuSans-46"/>
       <use x="95.410156" xlink:href="#DejaVuSans-51"/>
      </g>
     </g>
    </g>
    <g id="xtick_6">
     <g id="line2d_6">
      <g>
       <use style="stroke:#000000;stroke-width:0.8;" x="303.670604" xlink:href="#m8c82bb2df3" y="224.64"/>
      </g>
     </g>
     <g id="text_6">
      <!-- 0.4 -->
      <defs>
       <path d="M 37.796875 64.3125 
L 12.890625 25.390625 
L 37.796875 25.390625 
z
M 35.203125 72.90625 
L 47.609375 72.90625 
L 47.609375 25.390625 
L 58.015625 25.390625 
L 58.015625 17.1875 
L 47.609375 17.1875 
L 47.609375 0 
L 37.796875 0 
L 37.796875 17.1875 
L 4.890625 17.1875 
L 4.890625 26.703125 
z
" id="DejaVuSans-52"/>
      </defs>
      <g transform="translate(295.719041 239.238437)scale(0.1 -0.1)">
       <use xlink:href="#DejaVuSans-48"/>
       <use x="63.623047" xlink:href="#DejaVuSans-46"/>
       <use x="95.410156" xlink:href="#DejaVuSans-52"/>
      </g>
     </g>
    </g>
    <g id="xtick_7">
     <g id="line2d_7">
      <g>
       <use style="stroke:#000000;stroke-width:0.8;" x="358.17184" xlink:href="#m8c82bb2df3" y="224.64"/>
      </g>
     </g>
     <g id="text_7">
      <!-- 0.5 -->
      <defs>
       <path d="M 10.796875 72.90625 
L 49.515625 72.90625 
L 49.515625 64.59375 
L 19.828125 64.59375 
L 19.828125 46.734375 
Q 21.96875 47.46875 24.109375 47.828125 
Q 26.265625 48.1875 28.421875 48.1875 
Q 40.625 48.1875 47.75 41.5 
Q 54.890625 34.8125 54.890625 23.390625 
Q 54.890625 11.625 47.5625 5.09375 
Q 40.234375 -1.421875 26.90625 -1.421875 
Q 22.3125 -1.421875 17.546875 -0.640625 
Q 12.796875 0.140625 7.71875 1.703125 
L 7.71875 11.625 
Q 12.109375 9.234375 16.796875 8.0625 
Q 21.484375 6.890625 26.703125 6.890625 
Q 35.15625 6.890625 40.078125 11.328125 
Q 45.015625 15.765625 45.015625 23.390625 
Q 45.015625 31 40.078125 35.4375 
Q 35.15625 39.890625 26.703125 39.890625 
Q 22.75 39.890625 18.8125 39.015625 
Q 14.890625 38.140625 10.796875 36.28125 
z
" id="DejaVuSans-53"/>
      </defs>
      <g transform="translate(350.220277 239.238437)scale(0.1 -0.1)">
       <use xlink:href="#DejaVuSans-48"/>
       <use x="63.623047" xlink:href="#DejaVuSans-46"/>
       <use x="95.410156" xlink:href="#DejaVuSans-53"/>
      </g>
     </g>
    </g>
    <g id="text_8">
     <!-- probability of being essential -->
     <defs>
      <path d="M 18.109375 8.203125 
L 18.109375 -20.796875 
L 9.078125 -20.796875 
L 9.078125 54.6875 
L 18.109375 54.6875 
L 18.109375 46.390625 
Q 20.953125 51.265625 25.265625 53.625 
Q 29.59375 56 35.59375 56 
Q 45.5625 56 51.78125 48.09375 
Q 58.015625 40.1875 58.015625 27.296875 
Q 58.015625 14.40625 51.78125 6.484375 
Q 45.5625 -1.421875 35.59375 -1.421875 
Q 29.59375 -1.421875 25.265625 0.953125 
Q 20.953125 3.328125 18.109375 8.203125 
z
M 48.6875 27.296875 
Q 48.6875 37.203125 44.609375 42.84375 
Q 40.53125 48.484375 33.40625 48.484375 
Q 26.265625 48.484375 22.1875 42.84375 
Q 18.109375 37.203125 18.109375 27.296875 
Q 18.109375 17.390625 22.1875 11.75 
Q 26.265625 6.109375 33.40625 6.109375 
Q 40.53125 6.109375 44.609375 11.75 
Q 48.6875 17.390625 48.6875 27.296875 
z
" id="DejaVuSans-112"/>
      <path d="M 41.109375 46.296875 
Q 39.59375 47.171875 37.8125 47.578125 
Q 36.03125 48 33.890625 48 
Q 26.265625 48 22.1875 43.046875 
Q 18.109375 38.09375 18.109375 28.8125 
L 18.109375 0 
L 9.078125 0 
L 9.078125 54.6875 
L 18.109375 54.6875 
L 18.109375 46.1875 
Q 20.953125 51.171875 25.484375 53.578125 
Q 30.03125 56 36.53125 56 
Q 37.453125 56 38.578125 55.875 
Q 39.703125 55.765625 41.0625 55.515625 
z
" id="DejaVuSans-114"/>
      <path d="M 30.609375 48.390625 
Q 23.390625 48.390625 19.1875 42.75 
Q 14.984375 37.109375 14.984375 27.296875 
Q 14.984375 17.484375 19.15625 11.84375 
Q 23.34375 6.203125 30.609375 6.203125 
Q 37.796875 6.203125 41.984375 11.859375 
Q 46.1875 17.53125 46.1875 27.296875 
Q 46.1875 37.015625 41.984375 42.703125 
Q 37.796875 48.390625 30.609375 48.390625 
z
M 30.609375 56 
Q 42.328125 56 49.015625 48.375 
Q 55.71875 40.765625 55.71875 27.296875 
Q 55.71875 13.875 49.015625 6.21875 
Q 42.328125 -1.421875 30.609375 -1.421875 
Q 18.84375 -1.421875 12.171875 6.21875 
Q 5.515625 13.875 5.515625 27.296875 
Q 5.515625 40.765625 12.171875 48.375 
Q 18.84375 56 30.609375 56 
z
" id="DejaVuSans-111"/>
      <path d="M 48.6875 27.296875 
Q 48.6875 37.203125 44.609375 42.84375 
Q 40.53125 48.484375 33.40625 48.484375 
Q 26.265625 48.484375 22.1875 42.84375 
Q 18.109375 37.203125 18.109375 27.296875 
Q 18.109375 17.390625 22.1875 11.75 
Q 26.265625 6.109375 33.40625 6.109375 
Q 40.53125 6.109375 44.609375 11.75 
Q 48.6875 17.390625 48.6875 27.296875 
z
M 18.109375 46.390625 
Q 20.953125 51.265625 25.265625 53.625 
Q 29.59375 56 35.59375 56 
Q 45.5625 56 51.78125 48.09375 
Q 58.015625 40.1875 58.015625 27.296875 
Q 58.015625 14.40625 51.78125 6.484375 
Q 45.5625 -1.421875 35.59375 -1.421875 
Q 29.59375 -1.421875 25.265625 0.953125 
Q 20.953125 3.328125 18.109375 8.203125 
L 18.109375 0 
L 9.078125 0 
L 9.078125 75.984375 
L 18.109375 75.984375 
z
" id="DejaVuSans-98"/>
      <path d="M 34.28125 27.484375 
Q 23.390625 27.484375 19.1875 25 
Q 14.984375 22.515625 14.984375 16.5 
Q 14.984375 11.71875 18.140625 8.90625 
Q 21.296875 6.109375 26.703125 6.109375 
Q 34.1875 6.109375 38.703125 11.40625 
Q 43.21875 16.703125 43.21875 25.484375 
L 43.21875 27.484375 
z
M 52.203125 31.203125 
L 52.203125 0 
L 43.21875 0 
L 43.21875 8.296875 
Q 40.140625 3.328125 35.546875 0.953125 
Q 30.953125 -1.421875 24.3125 -1.421875 
Q 15.921875 -1.421875 10.953125 3.296875 
Q 6 8.015625 6 15.921875 
Q 6 25.140625 12.171875 29.828125 
Q 18.359375 34.515625 30.609375 34.515625 
L 43.21875 34.515625 
L 43.21875 35.40625 
Q 43.21875 41.609375 39.140625 45 
Q 35.0625 48.390625 27.6875 48.390625 
Q 23 48.390625 18.546875 47.265625 
Q 14.109375 46.140625 10.015625 43.890625 
L 10.015625 52.203125 
Q 14.9375 54.109375 19.578125 55.046875 
Q 24.21875 56 28.609375 56 
Q 40.484375 56 46.34375 49.84375 
Q 52.203125 43.703125 52.203125 31.203125 
z
" id="DejaVuSans-97"/>
      <path d="M 9.421875 54.6875 
L 18.40625 54.6875 
L 18.40625 0 
L 9.421875 0 
z
M 9.421875 75.984375 
L 18.40625 75.984375 
L 18.40625 64.59375 
L 9.421875 64.59375 
z
" id="DejaVuSans-105"/>
      <path d="M 9.421875 75.984375 
L 18.40625 75.984375 
L 18.40625 0 
L 9.421875 0 
z
" id="DejaVuSans-108"/>
      <path d="M 18.3125 70.21875 
L 18.3125 54.6875 
L 36.8125 54.6875 
L 36.8125 47.703125 
L 18.3125 47.703125 
L 18.3125 18.015625 
Q 18.3125 11.328125 20.140625 9.421875 
Q 21.96875 7.515625 27.59375 7.515625 
L 36.8125 7.515625 
L 36.8125 0 
L 27.59375 0 
Q 17.1875 0 13.234375 3.875 
Q 9.28125 7.765625 9.28125 18.015625 
L 9.28125 47.703125 
L 2.6875 47.703125 
L 2.6875 54.6875 
L 9.28125 54.6875 
L 9.28125 70.21875 
z
" id="DejaVuSans-116"/>
      <path d="M 32.171875 -5.078125 
Q 28.375 -14.84375 24.75 -17.8125 
Q 21.140625 -20.796875 15.09375 -20.796875 
L 7.90625 -20.796875 
L 7.90625 -13.28125 
L 13.1875 -13.28125 
Q 16.890625 -13.28125 18.9375 -11.515625 
Q 21 -9.765625 23.484375 -3.21875 
L 25.09375 0.875 
L 2.984375 54.6875 
L 12.5 54.6875 
L 29.59375 11.921875 
L 46.6875 54.6875 
L 56.203125 54.6875 
z
" id="DejaVuSans-121"/>
      <path id="DejaVuSans-32"/>
      <path d="M 37.109375 75.984375 
L 37.109375 68.5 
L 28.515625 68.5 
Q 23.6875 68.5 21.796875 66.546875 
Q 19.921875 64.59375 19.921875 59.515625 
L 19.921875 54.6875 
L 34.71875 54.6875 
L 34.71875 47.703125 
L 19.921875 47.703125 
L 19.921875 0 
L 10.890625 0 
L 10.890625 47.703125 
L 2.296875 47.703125 
L 2.296875 54.6875 
L 10.890625 54.6875 
L 10.890625 58.5 
Q 10.890625 67.625 15.140625 71.796875 
Q 19.390625 75.984375 28.609375 75.984375 
z
" id="DejaVuSans-102"/>
      <path d="M 56.203125 29.59375 
L 56.203125 25.203125 
L 14.890625 25.203125 
Q 15.484375 15.921875 20.484375 11.0625 
Q 25.484375 6.203125 34.421875 6.203125 
Q 39.59375 6.203125 44.453125 7.46875 
Q 49.3125 8.734375 54.109375 11.28125 
L 54.109375 2.78125 
Q 49.265625 0.734375 44.1875 -0.34375 
Q 39.109375 -1.421875 33.890625 -1.421875 
Q 20.796875 -1.421875 13.15625 6.1875 
Q 5.515625 13.8125 5.515625 26.8125 
Q 5.515625 40.234375 12.765625 48.109375 
Q 20.015625 56 32.328125 56 
Q 43.359375 56 49.78125 48.890625 
Q 56.203125 41.796875 56.203125 29.59375 
z
M 47.21875 32.234375 
Q 47.125 39.59375 43.09375 43.984375 
Q 39.0625 48.390625 32.421875 48.390625 
Q 24.90625 48.390625 20.390625 44.140625 
Q 15.875 39.890625 15.1875 32.171875 
z
" id="DejaVuSans-101"/>
      <path d="M 54.890625 33.015625 
L 54.890625 0 
L 45.90625 0 
L 45.90625 32.71875 
Q 45.90625 40.484375 42.875 44.328125 
Q 39.84375 48.1875 33.796875 48.1875 
Q 26.515625 48.1875 22.3125 43.546875 
Q 18.109375 38.921875 18.109375 30.90625 
L 18.109375 0 
L 9.078125 0 
L 9.078125 54.6875 
L 18.109375 54.6875 
L 18.109375 46.1875 
Q 21.34375 51.125 25.703125 53.5625 
Q 30.078125 56 35.796875 56 
Q 45.21875 56 50.046875 50.171875 
Q 54.890625 44.34375 54.890625 33.015625 
z
" id="DejaVuSans-110"/>
      <path d="M 45.40625 27.984375 
Q 45.40625 37.75 41.375 43.109375 
Q 37.359375 48.484375 30.078125 48.484375 
Q 22.859375 48.484375 18.828125 43.109375 
Q 14.796875 37.75 14.796875 27.984375 
Q 14.796875 18.265625 18.828125 12.890625 
Q 22.859375 7.515625 30.078125 7.515625 
Q 37.359375 7.515625 41.375 12.890625 
Q 45.40625 18.265625 45.40625 27.984375 
z
M 54.390625 6.78125 
Q 54.390625 -7.171875 48.1875 -13.984375 
Q 42 -20.796875 29.203125 -20.796875 
Q 24.46875 -20.796875 20.265625 -20.09375 
Q 16.0625 -19.390625 12.109375 -17.921875 
L 12.109375 -9.1875 
Q 16.0625 -11.328125 19.921875 -12.34375 
Q 23.78125 -13.375 27.78125 -13.375 
Q 36.625 -13.375 41.015625 -8.765625 
Q 45.40625 -4.15625 45.40625 5.171875 
L 45.40625 9.625 
Q 42.625 4.78125 38.28125 2.390625 
Q 33.9375 0 27.875 0 
Q 17.828125 0 11.671875 7.65625 
Q 5.515625 15.328125 5.515625 27.984375 
Q 5.515625 40.671875 11.671875 48.328125 
Q 17.828125 56 27.875 56 
Q 33.9375 56 38.28125 53.609375 
Q 42.625 51.21875 45.40625 46.390625 
L 45.40625 54.6875 
L 54.390625 54.6875 
z
" id="DejaVuSans-103"/>
      <path d="M 44.28125 53.078125 
L 44.28125 44.578125 
Q 40.484375 46.53125 36.375 47.5 
Q 32.28125 48.484375 27.875 48.484375 
Q 21.1875 48.484375 17.84375 46.4375 
Q 14.5 44.390625 14.5 40.28125 
Q 14.5 37.15625 16.890625 35.375 
Q 19.28125 33.59375 26.515625 31.984375 
L 29.59375 31.296875 
Q 39.15625 29.25 43.1875 25.515625 
Q 47.21875 21.78125 47.21875 15.09375 
Q 47.21875 7.46875 41.1875 3.015625 
Q 35.15625 -1.421875 24.609375 -1.421875 
Q 20.21875 -1.421875 15.453125 -0.5625 
Q 10.6875 0.296875 5.421875 2 
L 5.421875 11.28125 
Q 10.40625 8.6875 15.234375 7.390625 
Q 20.0625 6.109375 24.8125 6.109375 
Q 31.15625 6.109375 34.5625 8.28125 
Q 37.984375 10.453125 37.984375 14.40625 
Q 37.984375 18.0625 35.515625 20.015625 
Q 33.0625 21.96875 24.703125 23.78125 
L 21.578125 24.515625 
Q 13.234375 26.265625 9.515625 29.90625 
Q 5.8125 33.546875 5.8125 39.890625 
Q 5.8125 47.609375 11.28125 51.796875 
Q 16.75 56 26.8125 56 
Q 31.78125 56 36.171875 55.265625 
Q 40.578125 54.546875 44.28125 53.078125 
z
" id="DejaVuSans-115"/>
     </defs>
     <g transform="translate(121.635156 252.916562)scale(0.1 -0.1)">
      <use xlink:href="#DejaVuSans-112"/>
      <use x="63.476562" xlink:href="#DejaVuSans-114"/>
      <use x="104.558594" xlink:href="#DejaVuSans-111"/>
      <use x="165.740234" xlink:href="#DejaVuSans-98"/>
      <use x="229.216797" xlink:href="#DejaVuSans-97"/>
      <use x="290.496094" xlink:href="#DejaVuSans-98"/>
      <use x="353.972656" xlink:href="#DejaVuSans-105"/>
      <use x="381.755859" xlink:href="#DejaVuSans-108"/>
      <use x="409.539062" xlink:href="#DejaVuSans-105"/>
      <use x="437.322266" xlink:href="#DejaVuSans-116"/>
      <use x="476.53125" xlink:href="#DejaVuSans-121"/>
      <use x="535.710938" xlink:href="#DejaVuSans-32"/>
      <use x="567.498047" xlink:href="#DejaVuSans-111"/>
      <use x="628.679688" xlink:href="#DejaVuSans-102"/>
      <use x="663.884766" xlink:href="#DejaVuSans-32"/>
      <use x="695.671875" xlink:href="#DejaVuSans-98"/>
      <use x="759.148438" xlink:href="#DejaVuSans-101"/>
      <use x="820.671875" xlink:href="#DejaVuSans-105"/>
      <use x="848.455078" xlink:href="#DejaVuSans-110"/>
      <use x="911.833984" xlink:href="#DejaVuSans-103"/>
      <use x="975.310547" xlink:href="#DejaVuSans-32"/>
      <use x="1007.097656" xlink:href="#DejaVuSans-101"/>
      <use x="1068.621094" xlink:href="#DejaVuSans-115"/>
      <use x="1120.720703" xlink:href="#DejaVuSans-115"/>
      <use x="1172.820312" xlink:href="#DejaVuSans-101"/>
      <use x="1234.34375" xlink:href="#DejaVuSans-110"/>
      <use x="1297.722656" xlink:href="#DejaVuSans-116"/>
      <use x="1336.931641" xlink:href="#DejaVuSans-105"/>
      <use x="1364.714844" xlink:href="#DejaVuSans-97"/>
      <use x="1425.994141" xlink:href="#DejaVuSans-108"/>
     </g>
    </g>
   </g>
   <g id="matplotlib.axis_2">
    <g id="ytick_1">
     <g id="line2d_8">
      <defs>
       <path d="M 0 0 
L -3.5 0 
" id="m1dca8e3017" style="stroke:#000000;stroke-width:0.8;"/>
      </defs>
      <g>
       <use style="stroke:#000000;stroke-width:0.8;" x="26.925" xlink:href="#m1dca8e3017" y="224.64"/>
      </g>
     </g>
     <g id="text_9">
      <!-- 0 -->
      <g transform="translate(13.5625 228.439219)scale(0.1 -0.1)">
       <use xlink:href="#DejaVuSans-48"/>
      </g>
     </g>
    </g>
    <g id="ytick_2">
     <g id="line2d_9">
      <g>
       <use style="stroke:#000000;stroke-width:0.8;" x="26.925" xlink:href="#m1dca8e3017" y="198.754286"/>
      </g>
     </g>
     <g id="text_10">
      <!-- 10 -->
      <g transform="translate(7.2 202.553504)scale(0.1 -0.1)">
       <use xlink:href="#DejaVuSans-49"/>
       <use x="63.623047" xlink:href="#DejaVuSans-48"/>
      </g>
     </g>
    </g>
    <g id="ytick_3">
     <g id="line2d_10">
      <g>
       <use style="stroke:#000000;stroke-width:0.8;" x="26.925" xlink:href="#m1dca8e3017" y="172.868571"/>
      </g>
     </g>
     <g id="text_11">
      <!-- 20 -->
      <g transform="translate(7.2 176.66779)scale(0.1 -0.1)">
       <use xlink:href="#DejaVuSans-50"/>
       <use x="63.623047" xlink:href="#DejaVuSans-48"/>
      </g>
     </g>
    </g>
    <g id="ytick_4">
     <g id="line2d_11">
      <g>
       <use style="stroke:#000000;stroke-width:0.8;" x="26.925" xlink:href="#m1dca8e3017" y="146.982857"/>
      </g>
     </g>
     <g id="text_12">
      <!-- 30 -->
      <g transform="translate(7.2 150.782076)scale(0.1 -0.1)">
       <use xlink:href="#DejaVuSans-51"/>
       <use x="63.623047" xlink:href="#DejaVuSans-48"/>
      </g>
     </g>
    </g>
    <g id="ytick_5">
     <g id="line2d_12">
      <g>
       <use style="stroke:#000000;stroke-width:0.8;" x="26.925" xlink:href="#m1dca8e3017" y="121.097143"/>
      </g>
     </g>
     <g id="text_13">
      <!-- 40 -->
      <g transform="translate(7.2 124.896362)scale(0.1 -0.1)">
       <use xlink:href="#DejaVuSans-52"/>
       <use x="63.623047" xlink:href="#DejaVuSans-48"/>
      </g>
     </g>
    </g>
    <g id="ytick_6">
     <g id="line2d_13">
      <g>
       <use style="stroke:#000000;stroke-width:0.8;" x="26.925" xlink:href="#m1dca8e3017" y="95.211429"/>
      </g>
     </g>
     <g id="text_14">
      <!-- 50 -->
      <g transform="translate(7.2 99.010647)scale(0.1 -0.1)">
       <use xlink:href="#DejaVuSans-53"/>
       <use x="63.623047" xlink:href="#DejaVuSans-48"/>
      </g>
     </g>
    </g>
    <g id="ytick_7">
     <g id="line2d_14">
      <g>
       <use style="stroke:#000000;stroke-width:0.8;" x="26.925" xlink:href="#m1dca8e3017" y="69.325714"/>
      </g>
     </g>
     <g id="text_15">
      <!-- 60 -->
      <defs>
       <path d="M 33.015625 40.375 
Q 26.375 40.375 22.484375 35.828125 
Q 18.609375 31.296875 18.609375 23.390625 
Q 18.609375 15.53125 22.484375 10.953125 
Q 26.375 6.390625 33.015625 6.390625 
Q 39.65625 6.390625 43.53125 10.953125 
Q 47.40625 15.53125 47.40625 23.390625 
Q 47.40625 31.296875 43.53125 35.828125 
Q 39.65625 40.375 33.015625 40.375 
z
M 52.59375 71.296875 
L 52.59375 62.3125 
Q 48.875 64.0625 45.09375 64.984375 
Q 41.3125 65.921875 37.59375 65.921875 
Q 27.828125 65.921875 22.671875 59.328125 
Q 17.53125 52.734375 16.796875 39.40625 
Q 19.671875 43.65625 24.015625 45.921875 
Q 28.375 48.1875 33.59375 48.1875 
Q 44.578125 48.1875 50.953125 41.515625 
Q 57.328125 34.859375 57.328125 23.390625 
Q 57.328125 12.15625 50.6875 5.359375 
Q 44.046875 -1.421875 33.015625 -1.421875 
Q 20.359375 -1.421875 13.671875 8.265625 
Q 6.984375 17.96875 6.984375 36.375 
Q 6.984375 53.65625 15.1875 63.9375 
Q 23.390625 74.21875 37.203125 74.21875 
Q 40.921875 74.21875 44.703125 73.484375 
Q 48.484375 72.75 52.59375 71.296875 
z
" id="DejaVuSans-54"/>
      </defs>
      <g transform="translate(7.2 73.124933)scale(0.1 -0.1)">
       <use xlink:href="#DejaVuSans-54"/>
       <use x="63.623047" xlink:href="#DejaVuSans-48"/>
      </g>
     </g>
    </g>
    <g id="ytick_8">
     <g id="line2d_15">
      <g>
       <use style="stroke:#000000;stroke-width:0.8;" x="26.925" xlink:href="#m1dca8e3017" y="43.44"/>
      </g>
     </g>
     <g id="text_16">
      <!-- 70 -->
      <defs>
       <path d="M 8.203125 72.90625 
L 55.078125 72.90625 
L 55.078125 68.703125 
L 28.609375 0 
L 18.3125 0 
L 43.21875 64.59375 
L 8.203125 64.59375 
z
" id="DejaVuSans-55"/>
      </defs>
      <g transform="translate(7.2 47.239219)scale(0.1 -0.1)">
       <use xlink:href="#DejaVuSans-55"/>
       <use x="63.623047" xlink:href="#DejaVuSans-48"/>
      </g>
     </g>
    </g>
    <g id="ytick_9">
     <g id="line2d_16">
      <g>
       <use style="stroke:#000000;stroke-width:0.8;" x="26.925" xlink:href="#m1dca8e3017" y="17.554286"/>
      </g>
     </g>
     <g id="text_17">
      <!-- 80 -->
      <defs>
       <path d="M 31.78125 34.625 
Q 24.75 34.625 20.71875 30.859375 
Q 16.703125 27.09375 16.703125 20.515625 
Q 16.703125 13.921875 20.71875 10.15625 
Q 24.75 6.390625 31.78125 6.390625 
Q 38.8125 6.390625 42.859375 10.171875 
Q 46.921875 13.96875 46.921875 20.515625 
Q 46.921875 27.09375 42.890625 30.859375 
Q 38.875 34.625 31.78125 34.625 
z
M 21.921875 38.8125 
Q 15.578125 40.375 12.03125 44.71875 
Q 8.5 49.078125 8.5 55.328125 
Q 8.5 64.0625 14.71875 69.140625 
Q 20.953125 74.21875 31.78125 74.21875 
Q 42.671875 74.21875 48.875 69.140625 
Q 55.078125 64.0625 55.078125 55.328125 
Q 55.078125 49.078125 51.53125 44.71875 
Q 48 40.375 41.703125 38.8125 
Q 48.828125 37.15625 52.796875 32.3125 
Q 56.78125 27.484375 56.78125 20.515625 
Q 56.78125 9.90625 50.3125 4.234375 
Q 43.84375 -1.421875 31.78125 -1.421875 
Q 19.734375 -1.421875 13.25 4.234375 
Q 6.78125 9.90625 6.78125 20.515625 
Q 6.78125 27.484375 10.78125 32.3125 
Q 14.796875 37.15625 21.921875 38.8125 
z
M 18.3125 54.390625 
Q 18.3125 48.734375 21.84375 45.5625 
Q 25.390625 42.390625 31.78125 42.390625 
Q 38.140625 42.390625 41.71875 45.5625 
Q 45.3125 48.734375 45.3125 54.390625 
Q 45.3125 60.0625 41.71875 63.234375 
Q 38.140625 66.40625 31.78125 66.40625 
Q 25.390625 66.40625 21.84375 63.234375 
Q 18.3125 60.0625 18.3125 54.390625 
z
" id="DejaVuSans-56"/>
      </defs>
      <g transform="translate(7.2 21.353504)scale(0.1 -0.1)">
       <use xlink:href="#DejaVuSans-56"/>
       <use x="63.623047" xlink:href="#DejaVuSans-48"/>
      </g>
     </g>
    </g>
   </g>
   <g id="LineCollection_1">
    <path clip-path="url(#pf8dc4865f3)" d="M 249.169368 224.64 
L 249.169368 17.554286 
" style="fill:none;stroke:#000000;stroke-opacity:0.5;stroke-width:2;"/>
   </g>
   <g id="LineCollection_2">
    <path clip-path="url(#pf8dc4865f3)" d="M 314.570851 224.64 
L 314.570851 17.554286 
" style="fill:none;stroke:#000000;stroke-opacity:0.5;stroke-width:2;"/>
   </g>
   <g id="LineCollection_3">
    <path clip-path="url(#pf8dc4865f3)" d="M 249.169368 17.554286 
L 314.570851 17.554286 
" style="fill:none;stroke:#000000;stroke-opacity:0.5;stroke-width:2;"/>
   </g>
   <g id="line2d_17">
    <path clip-path="url(#pf8dc4865f3)" d="M 42.143182 224.568609 
L 49.332874 224.513919 
L 56.522566 224.230446 
L 61.315694 223.810951 
L 66.108822 223.11057 
L 70.901951 222.068212 
L 75.695079 220.687778 
L 82.884771 218.227088 
L 87.677899 216.624349 
L 92.471027 215.317077 
L 94.867591 214.828516 
L 97.264155 214.465631 
L 99.660719 214.230659 
L 102.057283 214.118803 
L 106.850412 214.218079 
L 111.64354 214.640722 
L 118.833232 215.593723 
L 133.212616 217.600192 
L 140.402309 218.384038 
L 147.592001 218.962595 
L 157.178257 219.477236 
L 176.35077 220.191588 
L 193.126718 220.652798 
L 214.695795 221.000007 
L 241.057999 221.234472 
L 253.04082 221.118531 
L 265.02364 220.735218 
L 274.609896 220.233068 
L 281.799588 219.639304 
L 298.575537 217.939685 
L 300.972101 217.933368 
L 303.368665 218.051015 
L 305.765229 218.297956 
L 310.558357 219.145537 
L 315.351485 220.314592 
L 322.541178 222.140163 
L 327.334306 223.116561 
L 332.127434 223.804082 
L 336.920562 224.226339 
L 344.110254 224.513955 
L 346.506818 224.551236 
L 346.506818 224.551236 
" style="fill:none;stroke:#1f77b4;stroke-linecap:square;stroke-width:1.5;"/>
   </g>
   <g id="line2d_18">
    <path clip-path="url(#pf8dc4865f3)" d="M 136.495082 224.269962 
L 137.918285 224.502982 
L 140.76469 224.614888 
L 147.880702 224.523496 
L 154.996715 224.226635 
L 160.689525 223.961337 
L 167.805537 223.95731 
L 176.344752 223.799188 
L 183.460765 223.444995 
L 191.99998 222.939434 
L 194.846385 222.944215 
L 204.808802 223.287764 
L 210.501612 222.986183 
L 219.040827 222.34737 
L 227.580042 222.194911 
L 230.426447 221.75044 
L 234.696054 220.862706 
L 236.119257 220.74886 
L 237.542459 220.793855 
L 240.388864 221.233991 
L 243.235269 221.680121 
L 244.658472 221.757537 
L 247.504877 221.561571 
L 251.774484 220.922381 
L 253.197687 220.822885 
L 254.620889 220.841335 
L 257.467294 221.204227 
L 260.313699 221.707776 
L 261.736902 221.844703 
L 263.160104 221.800328 
L 264.583307 221.489569 
L 266.006509 220.824875 
L 267.429712 219.727822 
L 268.852914 218.15548 
L 270.276117 216.141147 
L 273.122522 211.532513 
L 274.545724 209.623201 
L 275.968927 208.515909 
L 277.392129 208.49941 
L 278.815332 209.633801 
L 280.238534 211.71686 
L 284.508141 219.456474 
L 285.931344 221.260798 
L 287.354546 222.316758 
L 288.777749 222.481185 
L 290.200951 221.504235 
L 291.624154 218.943507 
L 293.047356 214.184206 
L 294.470559 206.621908 
L 295.893761 196.009043 
L 300.163369 155.964917 
L 301.586571 147.309079 
L 303.009774 144.78916 
L 304.432976 149.034807 
L 305.856179 159.003266 
L 310.125786 199.130892 
L 311.548989 208.993312 
L 312.972191 215.841507 
L 314.395394 220.104221 
L 315.818596 222.496261 
L 317.241799 223.710826 
L 317.241799 223.710826 
" style="fill:none;stroke:#ff7f0e;stroke-linecap:square;stroke-width:1.5;"/>
   </g>
   <g id="patch_49">
    <path d="M 26.925 224.64 
L 26.925 7.2 
" style="fill:none;stroke:#000000;stroke-linecap:square;stroke-linejoin:miter;stroke-width:0.8;"/>
   </g>
   <g id="patch_50">
    <path d="M 361.725 224.64 
L 361.725 7.2 
" style="fill:none;stroke:#000000;stroke-linecap:square;stroke-linejoin:miter;stroke-width:0.8;"/>
   </g>
   <g id="patch_51">
    <path d="M 26.925 224.64 
L 361.725 224.64 
" style="fill:none;stroke:#000000;stroke-linecap:square;stroke-linejoin:miter;stroke-width:0.8;"/>
   </g>
   <g id="patch_52">
    <path d="M 26.925 7.2 
L 361.725 7.2 
" style="fill:none;stroke:#000000;stroke-linecap:square;stroke-linejoin:miter;stroke-width:0.8;"/>
   </g>
   <g id="legend_1">
    <g id="patch_53">
     <path d="M 33.925 59.234375 
L 222.901563 59.234375 
Q 224.901563 59.234375 224.901563 57.234375 
L 224.901563 14.2 
Q 224.901563 12.2 222.901563 12.2 
L 33.925 12.2 
Q 31.925 12.2 31.925 14.2 
L 31.925 57.234375 
Q 31.925 59.234375 33.925 59.234375 
z
" style="fill:#ffffff;opacity:0.8;stroke:#cccccc;stroke-linejoin:miter;"/>
    </g>
    <g id="patch_54">
     <path d="M 35.925 23.798437 
L 55.925 23.798437 
L 55.925 16.798437 
L 35.925 16.798437 
z
" style="fill:#1f77b4;opacity:0.4;"/>
    </g>
    <g id="text_18">
     <!-- non-essentials -->
     <defs>
      <path d="M 4.890625 31.390625 
L 31.203125 31.390625 
L 31.203125 23.390625 
L 4.890625 23.390625 
z
" id="DejaVuSans-45"/>
     </defs>
     <g transform="translate(63.925 23.798437)scale(0.1 -0.1)">
      <use xlink:href="#DejaVuSans-110"/>
      <use x="63.378906" xlink:href="#DejaVuSans-111"/>
      <use x="124.560547" xlink:href="#DejaVuSans-110"/>
      <use x="187.939453" xlink:href="#DejaVuSans-45"/>
      <use x="224.023438" xlink:href="#DejaVuSans-101"/>
      <use x="285.546875" xlink:href="#DejaVuSans-115"/>
      <use x="337.646484" xlink:href="#DejaVuSans-115"/>
      <use x="389.746094" xlink:href="#DejaVuSans-101"/>
      <use x="451.269531" xlink:href="#DejaVuSans-110"/>
      <use x="514.648438" xlink:href="#DejaVuSans-116"/>
      <use x="553.857422" xlink:href="#DejaVuSans-105"/>
      <use x="581.640625" xlink:href="#DejaVuSans-97"/>
      <use x="642.919922" xlink:href="#DejaVuSans-108"/>
      <use x="670.703125" xlink:href="#DejaVuSans-115"/>
     </g>
    </g>
    <g id="patch_55">
     <path d="M 35.925 38.476562 
L 55.925 38.476562 
L 55.925 31.476562 
L 35.925 31.476562 
z
" style="fill:#ff7f0e;opacity:0.4;"/>
    </g>
    <g id="text_19">
     <!-- true-essentials -->
     <defs>
      <path d="M 8.5 21.578125 
L 8.5 54.6875 
L 17.484375 54.6875 
L 17.484375 21.921875 
Q 17.484375 14.15625 20.5 10.265625 
Q 23.53125 6.390625 29.59375 6.390625 
Q 36.859375 6.390625 41.078125 11.03125 
Q 45.3125 15.671875 45.3125 23.6875 
L 45.3125 54.6875 
L 54.296875 54.6875 
L 54.296875 0 
L 45.3125 0 
L 45.3125 8.40625 
Q 42.046875 3.421875 37.71875 1 
Q 33.40625 -1.421875 27.6875 -1.421875 
Q 18.265625 -1.421875 13.375 4.4375 
Q 8.5 10.296875 8.5 21.578125 
z
M 31.109375 56 
z
" id="DejaVuSans-117"/>
     </defs>
     <g transform="translate(63.925 38.476562)scale(0.1 -0.1)">
      <use xlink:href="#DejaVuSans-116"/>
      <use x="39.208984" xlink:href="#DejaVuSans-114"/>
      <use x="80.322266" xlink:href="#DejaVuSans-117"/>
      <use x="143.701172" xlink:href="#DejaVuSans-101"/>
      <use x="205.224609" xlink:href="#DejaVuSans-45"/>
      <use x="241.308594" xlink:href="#DejaVuSans-101"/>
      <use x="302.832031" xlink:href="#DejaVuSans-115"/>
      <use x="354.931641" xlink:href="#DejaVuSans-115"/>
      <use x="407.03125" xlink:href="#DejaVuSans-101"/>
      <use x="468.554688" xlink:href="#DejaVuSans-110"/>
      <use x="531.933594" xlink:href="#DejaVuSans-116"/>
      <use x="571.142578" xlink:href="#DejaVuSans-105"/>
      <use x="598.925781" xlink:href="#DejaVuSans-97"/>
      <use x="660.205078" xlink:href="#DejaVuSans-108"/>
      <use x="687.988281" xlink:href="#DejaVuSans-115"/>
     </g>
    </g>
    <g id="patch_56">
     <path d="M 35.925 53.154687 
L 55.925 53.154687 
L 55.925 46.154687 
L 35.925 46.154687 
z
" style="opacity:0.2;stroke:#000000;stroke-linejoin:miter;"/>
    </g>
    <g id="text_20">
     <!-- 88% of changes to be essential -->
     <defs>
      <path d="M 72.703125 32.078125 
Q 68.453125 32.078125 66.03125 28.46875 
Q 63.625 24.859375 63.625 18.40625 
Q 63.625 12.0625 66.03125 8.421875 
Q 68.453125 4.78125 72.703125 4.78125 
Q 76.859375 4.78125 79.265625 8.421875 
Q 81.6875 12.0625 81.6875 18.40625 
Q 81.6875 24.8125 79.265625 28.4375 
Q 76.859375 32.078125 72.703125 32.078125 
z
M 72.703125 38.28125 
Q 80.421875 38.28125 84.953125 32.90625 
Q 89.5 27.546875 89.5 18.40625 
Q 89.5 9.28125 84.9375 3.921875 
Q 80.375 -1.421875 72.703125 -1.421875 
Q 64.890625 -1.421875 60.34375 3.921875 
Q 55.8125 9.28125 55.8125 18.40625 
Q 55.8125 27.59375 60.375 32.9375 
Q 64.9375 38.28125 72.703125 38.28125 
z
M 22.3125 68.015625 
Q 18.109375 68.015625 15.6875 64.375 
Q 13.28125 60.75 13.28125 54.390625 
Q 13.28125 47.953125 15.671875 44.328125 
Q 18.0625 40.71875 22.3125 40.71875 
Q 26.5625 40.71875 28.96875 44.328125 
Q 31.390625 47.953125 31.390625 54.390625 
Q 31.390625 60.6875 28.953125 64.34375 
Q 26.515625 68.015625 22.3125 68.015625 
z
M 66.40625 74.21875 
L 74.21875 74.21875 
L 28.609375 -1.421875 
L 20.796875 -1.421875 
z
M 22.3125 74.21875 
Q 30.03125 74.21875 34.609375 68.875 
Q 39.203125 63.53125 39.203125 54.390625 
Q 39.203125 45.171875 34.640625 39.84375 
Q 30.078125 34.515625 22.3125 34.515625 
Q 14.546875 34.515625 10.03125 39.859375 
Q 5.515625 45.21875 5.515625 54.390625 
Q 5.515625 63.484375 10.046875 68.84375 
Q 14.59375 74.21875 22.3125 74.21875 
z
" id="DejaVuSans-37"/>
      <path d="M 48.78125 52.59375 
L 48.78125 44.1875 
Q 44.96875 46.296875 41.140625 47.34375 
Q 37.3125 48.390625 33.40625 48.390625 
Q 24.65625 48.390625 19.8125 42.84375 
Q 14.984375 37.3125 14.984375 27.296875 
Q 14.984375 17.28125 19.8125 11.734375 
Q 24.65625 6.203125 33.40625 6.203125 
Q 37.3125 6.203125 41.140625 7.25 
Q 44.96875 8.296875 48.78125 10.40625 
L 48.78125 2.09375 
Q 45.015625 0.34375 40.984375 -0.53125 
Q 36.96875 -1.421875 32.421875 -1.421875 
Q 20.0625 -1.421875 12.78125 6.34375 
Q 5.515625 14.109375 5.515625 27.296875 
Q 5.515625 40.671875 12.859375 48.328125 
Q 20.21875 56 33.015625 56 
Q 37.15625 56 41.109375 55.140625 
Q 45.0625 54.296875 48.78125 52.59375 
z
" id="DejaVuSans-99"/>
      <path d="M 54.890625 33.015625 
L 54.890625 0 
L 45.90625 0 
L 45.90625 32.71875 
Q 45.90625 40.484375 42.875 44.328125 
Q 39.84375 48.1875 33.796875 48.1875 
Q 26.515625 48.1875 22.3125 43.546875 
Q 18.109375 38.921875 18.109375 30.90625 
L 18.109375 0 
L 9.078125 0 
L 9.078125 75.984375 
L 18.109375 75.984375 
L 18.109375 46.1875 
Q 21.34375 51.125 25.703125 53.5625 
Q 30.078125 56 35.796875 56 
Q 45.21875 56 50.046875 50.171875 
Q 54.890625 44.34375 54.890625 33.015625 
z
" id="DejaVuSans-104"/>
     </defs>
     <g transform="translate(63.925 53.154687)scale(0.1 -0.1)">
      <use xlink:href="#DejaVuSans-56"/>
      <use x="63.623047" xlink:href="#DejaVuSans-56"/>
      <use x="127.246094" xlink:href="#DejaVuSans-37"/>
      <use x="222.265625" xlink:href="#DejaVuSans-32"/>
      <use x="254.052734" xlink:href="#DejaVuSans-111"/>
      <use x="315.234375" xlink:href="#DejaVuSans-102"/>
      <use x="350.439453" xlink:href="#DejaVuSans-32"/>
      <use x="382.226562" xlink:href="#DejaVuSans-99"/>
      <use x="437.207031" xlink:href="#DejaVuSans-104"/>
      <use x="500.585938" xlink:href="#DejaVuSans-97"/>
      <use x="561.865234" xlink:href="#DejaVuSans-110"/>
      <use x="625.244141" xlink:href="#DejaVuSans-103"/>
      <use x="688.720703" xlink:href="#DejaVuSans-101"/>
      <use x="750.244141" xlink:href="#DejaVuSans-115"/>
      <use x="802.34375" xlink:href="#DejaVuSans-32"/>
      <use x="834.130859" xlink:href="#DejaVuSans-116"/>
      <use x="873.339844" xlink:href="#DejaVuSans-111"/>
      <use x="934.521484" xlink:href="#DejaVuSans-32"/>
      <use x="966.308594" xlink:href="#DejaVuSans-98"/>
      <use x="1029.785156" xlink:href="#DejaVuSans-101"/>
      <use x="1091.308594" xlink:href="#DejaVuSans-32"/>
      <use x="1123.095703" xlink:href="#DejaVuSans-101"/>
      <use x="1184.619141" xlink:href="#DejaVuSans-115"/>
      <use x="1236.71875" xlink:href="#DejaVuSans-115"/>
      <use x="1288.818359" xlink:href="#DejaVuSans-101"/>
      <use x="1350.341797" xlink:href="#DejaVuSans-110"/>
      <use x="1413.720703" xlink:href="#DejaVuSans-116"/>
      <use x="1452.929688" xlink:href="#DejaVuSans-105"/>
      <use x="1480.712891" xlink:href="#DejaVuSans-97"/>
      <use x="1541.992188" xlink:href="#DejaVuSans-108"/>
     </g>
    </g>
   </g>
  </g>
 </g>
 <defs>
  <clipPath id="pf8dc4865f3">
   <rect height="217.44" width="334.8" x="26.925" y="7.2"/>
  </clipPath>
 </defs>
</svg>
